<svg width="121" height="32" viewBox="0 0 121 32" fill="none" xmlns="http://www.w3.org/2000/svg">
  <path d="M77.0001 16C77.0001 24.8366 69.8367 32 61.0001 32C52.1635 32 45.0001 24.8366 45.0001 16C45.0001 7.16344 52.1635 0 61.0001 0C69.8367 0 77.0001 7.16344 77.0001 16Z" fill="#2A6F62"/>
  <path d="M95.4762 23.5238C99.0281 23.5238 101.905 20.6474 101.905 17.0955C101.905 13.5435 99.0281 10.6671 95.4762 10.6671C91.9242 10.6671 89.0479 13.5435 89.0479 17.0955C89.0479 20.6474 91.9242 23.5238 95.4762 23.5238Z" stroke="#2A6F62" stroke-width="2"/>
  <path d="M26.5239 23.5238C30.0759 23.5238 32.9522 20.6474 32.9522 17.0955C32.9522 13.5435 30.0759 10.6671 26.5239 10.6671C22.972 10.6671 20.0956 13.5435 20.0956 17.0955C20.0956 20.6474 22.972 23.5238 26.5239 23.5238Z" stroke="#2A6F62" stroke-width="2"/>
  <path d="M121 11.4286V22.7619H118.095C116.452 22.7619 115.19 21.5 115.19 19.8571V14.3333C115.19 12.6905 116.452 11.4286 118.095 11.4286H121Z" fill="#2A6F62"/>
  <path d="M0 11.4286V22.7619H2.90476C4.54762 22.7619 5.80952 21.5 5.80952 19.8571V14.3333C5.80952 12.6905 4.54762 11.4286 2.90476 11.4286H0Z" fill="#2A6F62"/>
  <path d="M108.333 11.4286H111.238V22.7619H108.333V11.4286Z" fill="#2A6F62"/>
  <path d="M9.7619 11.4286H12.6666V22.7619H9.7619V11.4286Z" fill="#2A6F62"/>
  <path d="M61 26.1905C56.4545 26.1905 52.7619 22.4979 52.7619 17.9524V14.0476C52.7619 9.50214 56.4545 5.80952 61 5.80952C65.5455 5.80952 69.2381 9.50214 69.2381 14.0476V17.9524C69.2381 22.4979 65.5455 26.1905 61 26.1905Z" fill="white"/>
</svg> 